<svg width="99" height="99" viewBox="0 0 99 99" fill="none" xmlns="http://www.w3.org/2000/svg">
<path d="M17.9525 32.9533C11.8039 44.4679 8.7523 8.84689 14.0484 5.09628C19.3445 1.34567 50.0512 23.133 37.4013 22.8746C24.7513 22.6162 24.1011 21.4388 17.9525 32.9533Z" fill="black" stroke="black"/>
<path d="M20.6313 34.8708C15.9114 45.0293 13.0736 13.8223 17.2244 10.5612C21.3751 7.30009 45.9664 26.5966 35.925 26.1831C25.8836 25.7695 25.3513 24.7123 20.6313 34.8708Z" fill="white"/>
<path d="M61.5246 23.2271C48.6795 24.5368 76.8273 2.50015 82.7405 4.75699C88.6536 7.01383 86.58 43.9918 80.1539 33.5426C73.7278 23.0935 74.3697 21.9174 61.5246 23.2271Z" fill="black" stroke="black"/>
<path d="M61.3295 26.4623C50.3671 28.1918 74.9406 8.75202 79.8436 10.3442C84.7465 11.9364 81.5423 42.5644 76.6153 34.1556C71.6884 25.7468 72.292 24.7328 61.3295 26.4623Z" fill="white"/>
<path d="M97.2789 61.6833C97.2789 77.826 80.8821 97.9996 49.1395 97.9996C17.4222 97.9996 1 76.3484 1 61.6833C1 49.0178 5.17196 37.1445 13.241 28.4473C21.2983 19.7628 33.3081 14.1721 49.1395 14.1721C64.9709 14.1721 76.9806 19.7628 85.0379 28.4473C93.107 37.1445 97.2789 49.0178 97.2789 61.6833Z" fill="black" stroke="black" stroke-width="2"/>
<path d="M35.5053 43.1354C35.5053 45.1014 34.9216 46.8612 34.0026 48.1175C33.0833 49.3741 31.855 50.0986 30.5454 50.0986C29.2357 50.0986 28.0075 49.3741 27.0882 48.1175C26.1691 46.8612 25.5854 45.1014 25.5854 43.1354C25.5854 41.1693 26.1691 39.4095 27.0882 38.1533C28.0075 36.8967 29.2357 36.1721 30.5454 36.1721C31.855 36.1721 33.0833 36.8967 34.0026 38.1533C34.9216 39.4095 35.5053 41.1693 35.5053 43.1354Z" fill="white" stroke="white"/>
<ellipse cx="69.3935" cy="43.1354" rx="5.45994" ry="7.46326" fill="white"/>
<path d="M36.8478 63.6667C36.8478 63.6667 41.8596 76.6108 50.9595 63.6667C50.9595 63.6667 58.2394 76.6108 65.5193 63.6667M36.8478 63.6667H29.1197M36.8478 63.6667L34.5797 57.9526M65.5193 63.6667H78.6934V78.4766H36.8478H29.1197M65.5193 63.6667L69.1593 57.9526M29.1197 63.6667L16.3799 71.0133L29.1197 78.4766M29.1197 63.6667V78.4766" stroke="white" stroke-width="3"/>
</svg>
